<?xml version="1.0" encoding="utf-8"?>
<!-- Svg Vector Icons : http://www.onlinewebfonts.com/icon -->
<!DOCTYPE svg PUBLIC "-//W3C//DTD SVG 1.1//EN" "http://www.w3.org/Graphics/SVG/1.1/DTD/svg11.dtd">
<svg version="1.1" xmlns="http://www.w3.org/2000/svg" xmlns:xlink="http://www.w3.org/1999/xlink" x="0px" y="0px" viewBox="0 0 256 256" enable-background="new 0 0 256 256" xml:space="preserve">
<metadata> Svg Vector Icons : http://www.onlinewebfonts.com/icon </metadata>
<g><g><path  fill="#000000" d="M39.5,46.9V17.4c0-4.1,3.3-7.4,7.4-7.4c4.1,0,7.4,3.3,7.4,7.4v29.5c0,4.1-3.3,7.4-7.4,7.4C42.8,54.2,39.5,51,39.5,46.9z M164.9,54.3c4.1,0,7.4-3.3,7.4-7.4V17.4c0-4.1-3.3-7.4-7.4-7.4s-7.4,3.3-7.4,7.4v29.5C157.5,51,160.8,54.3,164.9,54.3z M246,187c0,32.6-26.4,59-59,59s-59-26.4-59-59s26.4-59,59-59S246,154.4,246,187z M231.3,187c0-24.4-19.8-44.3-44.3-44.3c-24.4,0-44.2,19.9-44.2,44.3c0,24.4,19.8,44.3,44.3,44.3C211.4,231.3,231.3,211.4,231.3,187z M69,98.5H39.5V128H69V98.5z M39.5,172.3H69v-29.5H39.5V172.3z M83.8,128h29.5V98.5H83.8V128z M83.8,172.3h29.5v-29.5H83.8V172.3z M24.8,185.5V83.8H187v29.5h14.8V55.7c0-9-7.2-16.2-16-16.2h-6.1v7.4c0,8.1-6.6,14.8-14.8,14.8s-14.8-6.6-14.8-14.8v-7.4H61.6v7.4c0,8.1-6.6,14.8-14.8,14.8S32.1,55,32.1,46.9v-7.4H26c-8.8,0-16,7.2-16,16.2v129.8c0,8.9,7.2,16.2,16,16.2h87.3V187H26C25.3,187,24.8,186.3,24.8,185.5z M157.5,128V98.5H128V128H157.5z M209.1,187H187v-22.1c0-4.1-3.3-7.4-7.4-7.4s-7.4,3.3-7.4,7.4v29.5c0,4.1,3.3,7.4,7.4,7.4h29.5c4.1,0,7.4-3.3,7.4-7.4S213.2,187,209.1,187z"/></g></g>
</svg>